<?xml version="1.0" encoding="utf-8"?>
<!-- Generator: Adobe Illustrator 23.0.4, SVG Export Plug-In . SVG Version: 6.00 Build 0)  -->
<svg version="1.1" id="Layer_1" xmlns="http://www.w3.org/2000/svg" xmlns:xlink="http://www.w3.org/1999/xlink" x="0px" y="0px"
	 viewBox="0 0 121.6 121.6" style="enable-background:new 0 0 121.6 121.6;" xml:space="preserve">
<style type="text/css">
	.st0{fill:#0098D4;}
	.st1{font-family:'Roboto-Bold';}
	.st2{font-size:55px;}
</style>
<text transform="matrix(1 0 0 1 60.0053 76.1259)" class="st0 st1 st2">U</text>
<path d="M58.4,97.1C49.6,93.7,38.9,85,30.3,70.7c14.9,15.1,23.6,22.8,44.2,26.4c-9.6-3.3-21.5-10.6-25.8-26.7
	c-3.7-14-4.9-25.4-6.4-34.2c-1.2,3.8-3.6,7.3-8.2,9.6c0,0,2.1-1.7,4-5.7c2.6-5.7,2.3-12.4-0.7-17.6c-3.1-5.2-8.5-8.3-14.3-7.9
	c0,0,0,0,0,0C3.3,15.9-9.5,54.8,15.9,87.5c15.6,19.5,37.9,20.7,53.5,18.1c17.8,4,36.4-1.1,50.5-18.2C115.3,91,92.1,110.5,58.4,97.1z
	"/>
</svg>
