<?xml version="1.0" encoding="utf-8"?>
<!-- Generator: Adobe Illustrator 23.0.4, SVG Export Plug-In . SVG Version: 6.00 Build 0)  -->
<svg version="1.1" id="Layer_1" xmlns="http://www.w3.org/2000/svg" xmlns:xlink="http://www.w3.org/1999/xlink" x="0px" y="0px"
	 viewBox="0 0 296.61 104.9" style="enable-background:new 0 0 296.61 104.9;" xml:space="preserve">
<style type="text/css">
	.st0{fill:#0098D4;}
	.st1{font-family:'Roboto-Bold';}
	.st2{font-size:55px;}
</style>
<text transform="matrix(1 0 0 1 63.7752 64.5691)" class="st0 st1 st2">Unburdn</text>
<path d="M62.14,85.56c-8.75-3.47-19.45-12.17-28.07-26.39c14.92,15.12,23.56,22.76,44.17,26.44c-9.61-3.31-21.53-10.64-25.77-26.7
	c-3.7-14.03-4.86-25.39-6.4-34.16c-1.15,3.77-3.57,7.28-8.23,9.65c0,0,2.14-1.66,4.04-5.72c2.64-5.65,2.35-12.36-0.74-17.61
	c-3.1-5.25-8.54-8.28-14.3-7.93c0,0-0.01,0-0.02,0C7.08,4.36-5.72,43.23,19.7,75.95c15.65,19.48,37.87,20.68,53.51,18.14
	c17.79,4.04,36.37-1.11,50.51-18.19C119.06,79.42,95.82,98.92,62.14,85.56z"/>
</svg>
